Coordinates
version=1
nRows=8
nColumns=40
inDegrees=yes

Units are S.I. units (second, meters, Newtons, ...)
Angles are in degrees.

endheader
time	pelvis_tilt	pelvis_list	pelvis_rotation	pelvis_tx	pelvis_ty	pelvis_tz	hip_flexion_r	hip_adduction_r	hip_rotation_r	knee_angle_r	knee_angle_r_beta	ankle_angle_r	subtalar_angle_r	mtp_angle_r	hip_flexion_l	hip_adduction_l	hip_rotation_l	knee_angle_l	knee_angle_l_beta	ankle_angle_l	subtalar_angle_l	mtp_angle_l	lumbar_extension	lumbar_bending	lumbar_rotation	arm_flex_r	arm_add_r	arm_rot_r	elbow_flex_r	pro_sup_r	wrist_flex_r	wrist_dev_r	arm_flex_l	arm_add_l	arm_rot_l	elbow_flex_l	pro_sup_l	wrist_flex_l	wrist_dev_l
      0.40666667	    -15.86572842	      4.10695748	     -8.69907666	      1.13376249	      0.89478875	     -0.20523125	     -5.18350189	     -8.50371146	    -13.21207198	     42.95751511	     42.95751511	    -25.04919525	      0.00000000	      0.00000000	     40.83775043	     -0.44586123	    -17.13947159	     10.25509632	     10.25509632	    -22.99567860	      0.00000000	      0.00000000	      5.84007548	     -2.47743848	     13.48085786	      3.31026543	    -24.86296813	     21.43669628	    103.10780446	     71.94683820	      0.00000000	      0.00000000	    -63.87022580	    -13.62319340	    -21.67981430	    108.81820084	     74.42952319	      0.00000000	      0.00000000
      0.41333333	    -15.19337576	      3.82245859	     -8.27960007	      1.15389613	      0.89147116	     -0.20564564	     -4.96933503	     -8.51144872	    -12.97753036	     45.80295034	     45.80295034	    -24.98662095	      0.00000000	      0.00000000	     39.50828510	     -0.02083295	    -17.01533003	     11.20894323	     11.20894323	    -23.17956163	      0.00000000	      0.00000000	      5.16585750	     -2.37130397	     13.07137399	      1.37913138	    -24.98801264	     21.14775690	    101.39723376	     71.84501471	      0.00000000	      0.00000000	    -62.15473260	    -13.12632385	    -21.14054084	    108.59677258	     74.43067970	      0.00000000	      0.00000000
      0.42000000	    -14.38075937	      4.53679492	     -8.58756510	      1.17264412	      0.88718408	     -0.20513726	     -3.70555563	    -10.21668164	    -12.85401991	     50.93144453	     50.93144453	    -21.60605039	      0.00000000	      0.00000000	     38.45434765	      0.65994468	    -18.47534497	     13.17267150	     13.17267150	    -22.41561947	      0.00000000	      0.00000000	      4.49932385	     -3.18158730	     13.96543237	     -0.57253271	    -24.05068168	     17.90522023	    100.05961617	     71.63291180	      0.00000000	      0.00000000	    -60.02540786	    -13.84676232	    -20.13808786	    108.08207612	     74.40043067	      0.00000000	      0.00000000
      0.42666667	    -14.01434333	      4.39039814	     -7.94741076	      1.19350458	      0.88289813	     -0.20576252	     -3.52508069	    -10.07013257	    -12.37489655	     52.77663845	     52.77663845	    -21.75986811	      0.00000000	      0.00000000	     37.14574427	      1.25956369	    -18.43864626	     13.71642264	     13.71642264	    -21.80732959	      0.00000000	      0.00000000	      4.27038889	     -3.16187963	     13.20661840	     -2.67346090	    -23.98873305	     18.12041152	     98.72277187	     71.60031336	      0.00000000	      0.00000000	    -58.59612819	    -13.37691096	    -19.61573524	    108.02283599	     74.39755105	      0.00000000	      0.00000000
      0.43333333	    -13.34231319	      5.10373556	     -7.88544481	      1.21158749	      0.87765427	     -0.20588081	     -1.99664899	    -11.81360281	    -12.58262634	     57.78725907	     57.78725907	    -18.78081805	      0.00000000	      0.00000000	     35.90839658	      2.44403049	    -16.80244495	     15.08225209	     15.08225209	    -14.32519637	      0.00000000	      0.00000000	      3.57002917	     -3.99082081	     14.31768898	     -5.56020854	    -23.10834078	     13.80275985	     97.21326983	     71.67762840	      0.00000000	      0.00000000	    -55.69816137	    -14.81377026	    -17.85090960	    107.69042926	     74.23794492	      0.00000000	      0.00000000
      0.44000000	    -12.89182317	      5.03327683	     -7.15439524	      1.23123576	      0.87322905	     -0.20632612	     -1.54470989	    -11.73842808	    -12.32060652	     59.95878333	     59.95878333	    -18.87504308	      0.00000000	      0.00000000	     34.53908086	      3.16584481	    -16.68383431	     15.71064503	     15.71064503	    -13.39484765	      0.00000000	      0.00000000	      3.03083154	     -4.17585297	     13.35696954	     -7.48817025	    -22.86044408	     14.06238417	     95.56998279	     71.65705655	      0.00000000	      0.00000000	    -53.89368478	    -14.17520707	    -17.11062165	    107.40899488	     74.22691369	      0.00000000	      0.00000000
      0.44666667	    -12.05284238	      5.90940517	     -6.81925005	      1.24920804	      0.86814464	     -0.20689679	     -0.33445797	    -13.54504169	    -12.37302790	     64.31823325	     64.31823325	    -16.09532794	      0.00000000	      0.00000000	     33.72073754	      4.42109011	    -17.58198535	     18.92250477	     18.92250477	     -4.67556804	      0.00000000	      0.00000000	      2.23457334	     -5.19697652	     13.42871414	     -8.88976152	    -21.92299771	     11.66821983	     92.80610763	     71.82033138	      0.00000000	      0.00000000	    -51.11025091	    -15.15265922	    -15.35301550	    106.44415564	     74.06098268	      0.00000000	      0.00000000
      0.45333333	    -11.40050364	      5.83566508	     -6.08664632	      1.26736559	      0.86340318	     -0.20759472	      0.45328561	    -13.70267430	    -12.19891569	     67.07386291	     67.07386291	    -16.01721021	      0.00000000	      0.00000000	     32.50608785	      5.13559338	    -17.25329943	     19.91679089	     19.91679089	     -3.45496020	      0.00000000	      0.00000000	      1.29609014	     -5.38842572	     12.37231752	    -10.38274065	    -21.86261659	     11.67099397	     90.95536131	     71.80795821	      0.00000000	      0.00000000	    -48.86256353	    -14.41426588	    -14.48439545	    106.10003898	     74.03617852	      0.00000000	      0.00000000
